<svg width="44" height="46" viewBox="0 0 44 46" fill="none" xmlns="http://www.w3.org/2000/svg"><path d="M33.586 21.19c-.82 1.775-1.43 2.5-2.09 2.65-.57 1.705-1.095 4.26-2.74 6.68L24.4 34.885h-4.71l-4.025-4.035c0-.02-.005-.045-.005-.065-1.795-2.495-2.325-5.18-2.915-6.945-.665-.15-1.275-.88-2.09-2.65-.935-2.02-1.79-4.08-.74-5.055.735-.68 1.395-.14 1.72.245-.01-1.445-.01-3.275-.01-5.65 0-2.235.53-3.975 1.345-5.335-.115 3.235 1.445 4.665 1.445 4.665h2.405l2.795 1.805V10.45L16.49 8.13s-2.08-2.765.65-6.345C19.676.62 22.126.58 22.126.58s2.325.035 4.785 1.11c2.84 3.625.725 6.435.725 6.435L24.5 10.45v1.415l2.795-1.805H29.7s1.63-1.49 1.435-4.875c.89 1.39 1.48 3.19 1.48 5.55 0 2.375 0 4.205-.01 5.65.33-.385.985-.925 1.72-.245 1.05.97.195 3.03-.74 5.05Zm.905 21.115-1.345-1.345v-1.6l3.665 2.535 1.38 1.38h5.175c-2.22-3.035-5.66-4.47-8.56-5.015-2.9-.545-5.42-2.645-6.045-3.965-.165-.345-.235-.85-.265-1.405l-3.8 3.805h-5.32l-3.66-3.66c-.03.495-.11.945-.255 1.26-.62 1.32-3.14 3.42-6.04 3.965-2.9.545-6.34 1.985-8.71 5.015h5.18l1.38-1.38 3.665-2.535v1.6L9.59 42.305v1.93l3.04 1.275h18.82l3.04-1.275v-1.93Z" fill="#c0c0c0"></path></svg>