<svg width="44" height="46" viewBox="0 0 30 30" fill="none" xmlns="http://www.w3.org/2000/svg"><path d="M14.4525 0.651446V29.1032H0.75V24.9852C0.75 24.9852 6.70547 22.5669 9.11062 21.4185C11.0761 20.48 10.5773 17.1069 10.5773 17.1069C10.5773 17.1069 9.95391 16.5294 9.79969 15.5286C9.64219 14.5311 9.46828 13.3925 9.46828 13.3925C9.46828 13.3925 8.94328 13.491 8.68734 12.8314C8.43469 12.1719 8.37563 11.9324 8.22141 11.1941C8.06719 10.4558 7.79812 8.72988 8.45437 8.7791C8.52 8.78566 8.81531 8.9891 8.80219 8.58879C8.80219 8.58879 7.90969 1.0091 14.4525 0.651446ZM19.2891 17.1069C19.2891 17.1069 19.3219 17.0774 19.3645 17.0249V2.34785C19.0003 1.9541 18.5639 1.60301 18.0356 1.32738V29.1064H19.3645V19.3874C19.1217 18.2488 19.2891 17.1069 19.2891 17.1069ZM21.1791 12.8347C21.4317 12.1752 21.4908 11.9357 21.645 11.1974C21.8025 10.4591 22.0683 8.73316 21.412 8.78238C21.3464 8.78894 21.0511 8.99238 21.0642 8.59207C21.0642 8.59207 21.2841 6.72176 20.7066 4.79894V13.3597C20.8673 13.2941 21.0544 13.1563 21.1791 12.8347ZM24.4111 23.0329V29.1064H25.6612V23.5611C25.2544 23.3872 24.8344 23.21 24.4111 23.0329ZM20.7558 21.4185C20.7394 21.4086 20.723 21.3988 20.7066 21.3922V29.1064H22.0683V22.0189C21.5728 21.7958 21.1233 21.5924 20.7558 21.4185ZM15.1219 0.641602V29.1032H16.7002V0.828633C16.2277 0.71707 15.6994 0.654727 15.1219 0.641602ZM29.1164 24.9852C29.1164 24.9852 28.6833 24.808 28.0073 24.5324V29.1064H29.1164V24.9852Z" fill="#C0C0C0"></path></svg>